<svg width="382" height="127" viewBox="0 0 382 127" fill="none" xmlns="http://www.w3.org/2000/svg">
<g filter="url(#filter0_d_7_125)">
<path d="M49.6903 99L46.3475 85.1089H25.2509L22.4281 99H0.588606L23.2452 17.9563L21.4624 11.9393H52.1416L76.9525 99H49.6903ZM34.8335 37.4929L28.2965 69.955H42.7076L34.8335 37.4929ZM95.1108 99L73.2713 35.8587H99.9393L104.693 58.6638L108.11 78.3491L111.899 58.6638L117.396 35.8587H137.453L118.51 99H95.1108ZM141.636 99V50.9383L137.179 48.1898V40.2414L153.15 35.8587H165.555V99H141.636ZM152.407 29.0246L140.224 16.7677V14.1678L152.407 1.98523H155.23L167.932 14.1678V16.7677L155.23 29.0246H152.407ZM199.797 99H175.803V50.9383L171.346 48.1898V40.2414L187.317 35.8587H199.946V45.4413L200.837 44.3271C201.431 43.5347 202.298 42.5938 203.437 41.5043C204.626 40.4148 205.938 39.35 207.374 38.3101C208.81 37.2206 210.519 36.3044 212.5 35.5616C214.53 34.7692 216.511 34.373 218.442 34.373C225.227 34.373 230.006 36.2301 232.779 39.9443C235.602 43.6585 237.013 49.8736 237.013 58.5896C237.013 58.8867 237.013 59.3324 237.013 59.9267C236.964 60.5209 236.939 60.9914 236.939 61.3381V99H212.425V59.1838C212.574 54.5287 210.593 52.2011 206.483 52.2011C206.186 52.2011 205.888 52.2259 205.591 52.2754C205.344 52.325 205.096 52.3745 204.848 52.424C204.65 52.4735 204.403 52.5726 204.106 52.7211C203.858 52.8202 203.635 52.9192 203.437 53.0183C203.239 53.0678 203.016 53.1916 202.768 53.3897C202.521 53.5383 202.323 53.6621 202.174 53.7611C202.026 53.8602 201.803 54.0335 201.506 54.2811C201.258 54.4792 201.06 54.6278 200.911 54.7268C200.812 54.8258 200.614 54.9992 200.317 55.2468C200.069 55.4449 199.896 55.5934 199.797 55.6925V99ZM276.771 124.554C271.671 124.554 266.867 123.811 262.36 122.325C257.854 120.839 254.561 118.834 252.481 116.308L256.343 108.285C259.216 109.92 263.772 110.737 270.012 110.737C271.993 110.737 273.701 110.514 275.137 110.068C276.573 109.623 277.861 108.83 279 107.691C280.139 106.602 281.006 105.042 281.6 103.011C282.194 100.981 282.516 98.48 282.566 95.5087V89.1202L281.823 90.3088C281.328 91.1011 280.56 92.0668 279.52 93.2059C278.53 94.2954 277.391 95.4096 276.103 96.5486C274.815 97.6381 273.231 98.5791 271.349 99.3714C269.516 100.164 267.635 100.56 265.703 100.56C258.324 100.56 253.124 98.5048 250.104 94.3944C247.083 90.2345 245.572 83.2518 245.572 73.4463V47.0756L242.898 44.4013V35.8587H269.937V78.1262C269.937 80.4043 270.284 82.088 270.977 83.1775C271.72 84.2175 273.181 84.7375 275.36 84.7375C276.004 84.7375 276.648 84.6384 277.291 84.4404C277.935 84.1927 278.554 83.8708 279.149 83.4747C279.792 83.0785 280.461 82.5833 281.154 81.989V47.0756L277.069 44.4013V35.8587H305.371V90.3088C305.371 101.253 303.043 109.697 298.388 115.64C293.733 121.582 286.527 124.554 276.771 124.554ZM347.394 92.3887L346.651 93.2059C346.156 93.8001 345.388 94.4934 344.348 95.2858C343.358 96.0782 342.194 96.8705 340.857 97.6629C339.569 98.4553 337.985 99.1238 336.103 99.6686C334.221 100.263 332.29 100.56 330.309 100.56C316.938 100.56 310.252 93.9487 310.252 80.7262C310.252 78.151 310.723 75.7987 311.663 73.6692C312.604 71.4902 313.818 69.6579 315.303 68.1722C316.789 66.6865 318.572 65.3742 320.652 64.2351C322.732 63.0466 324.812 62.1304 326.892 61.4866C329.021 60.7933 331.25 60.2238 333.577 59.7781C335.905 59.3324 337.985 59.0353 339.817 58.8867C341.649 58.7381 343.407 58.6638 345.091 58.6638V57.3267C345.091 54.3059 344.274 52.1764 342.64 50.9383C341.055 49.7003 338.48 49.0812 334.914 49.0812C331.844 49.0812 328.65 49.4526 325.332 50.1955C322.014 50.8888 319.414 51.7307 317.532 52.7211L312.778 42.6185C316.145 40.4395 320.528 38.5329 325.926 36.8987C331.324 35.2149 336.821 34.373 342.417 34.373C347.369 34.373 351.455 34.8682 354.674 35.8587C357.893 36.7996 360.493 38.4339 362.474 40.7614C364.504 43.0395 365.94 45.9613 366.782 49.5269C367.624 53.043 368.045 57.5248 368.045 62.9723V93.2059L370.125 99H349.771L347.394 92.3887ZM341.526 87.486C342.169 87.486 342.764 87.3622 343.308 87.1146C343.903 86.8174 344.348 86.5451 344.645 86.2975C344.943 86.0003 345.091 85.8518 345.091 85.8518V68.0236C342.07 68.0236 339.668 68.8655 337.886 70.5493C336.103 72.1835 335.211 74.7339 335.211 78.2005C335.211 84.3908 337.316 87.486 341.526 87.486Z" fill="#D40028"/>
</g>
<defs>
<filter id="filter0_d_7_125" x="0.588623" y="0.279903" width="380.622" height="125.979" filterUnits="userSpaceOnUse" color-interpolation-filters="sRGB">
<feFlood flood-opacity="0" result="BackgroundImageFix"/>
<feColorMatrix in="SourceAlpha" type="matrix" values="0 0 0 0 0 0 0 0 0 0 0 0 0 0 0 0 0 0 127 0" result="hardAlpha"/>
<feOffset dx="9.37997"/>
<feGaussianBlur stdDeviation="0.852724"/>
<feComposite in2="hardAlpha" operator="out"/>
<feColorMatrix type="matrix" values="0 0 0 0 0 0 0 0 0 0 0 0 0 0 0 0 0 0 0.25 0"/>
<feBlend mode="normal" in2="BackgroundImageFix" result="effect1_dropShadow_7_125"/>
<feBlend mode="normal" in="SourceGraphic" in2="effect1_dropShadow_7_125" result="shape"/>
</filter>
</defs>
</svg>
