<svg width="48" height="48" viewBox="0 0 48 48" fill="none" xmlns="http://www.w3.org/2000/svg">
<path d="M29.4 12.6C29.0335 12.9738 28.8282 13.4765 28.8282 14C28.8282 14.5235 29.0335 15.0261 29.4 15.4L32.6 18.6C32.9738 18.9664 33.4764 19.1717 34 19.1717C34.5235 19.1717 35.0261 18.9664 35.4 18.6L42.94 11.06C43.9456 13.2823 44.2501 15.7584 43.8129 18.1583C43.3756 20.5581 42.2174 22.7676 40.4925 24.4925C38.7676 26.2174 36.5581 27.3756 34.1582 27.8129C31.7584 28.2501 29.2823 27.9456 27.06 26.94L13.24 40.76C12.4443 41.5556 11.3652 42.0026 10.24 42.0026C9.11474 42.0026 8.0356 41.5556 7.23995 40.76C6.44431 39.9643 5.99731 38.8852 5.99731 37.76C5.99731 36.6347 6.44431 35.5556 7.23995 34.76L21.06 20.94C20.0543 18.7176 19.7498 16.2415 20.187 13.8417C20.6243 11.4418 21.7825 9.23227 23.5074 7.5074C25.2323 5.78253 27.4418 4.6243 29.8417 4.18704C32.2415 3.74979 34.7176 4.05429 36.94 5.05996L29.4 12.6Z" stroke="#1E1E1E" stroke-width="4" stroke-linecap="round" stroke-linejoin="round"/>
</svg>
